<?xml version="1.0" standalone="no"?>
<!DOCTYPE svg PUBLIC "-//W3C//DTD SVG 20010904//EN"
 "http://www.w3.org/TR/2001/REC-SVG-20010904/DTD/svg10.dtd">
<svg version="1.0" xmlns="http://www.w3.org/2000/svg"
 width="300.000000pt" height="300.000000pt" viewBox="0 0 300.000000 300.000000"
 preserveAspectRatio="xMidYMid meet">
<metadata>
Created by potrace 1.10, written by Peter Selinger 2001-2011
</metadata>
<g transform="translate(0.000000,300.000000) scale(0.100000,-0.100000)"
fill="#000000" stroke="none">
<path d="M2050 2965 l-34 -35 35 -35 35 -35 34 35 34 35 -35 35 -35 35 -34
-35z"/>
<path d="M1890 2825 l-44 -45 45 -46 46 -46 48 47 47 47 -43 44 c-24 24 -46
44 -49 44 -3 0 -26 -20 -50 -45z m70 -30 c10 -12 10 -18 0 -30 -17 -21 -37
-19 -45 5 -12 37 20 55 45 25z"/>
<path d="M2200 2815 l-34 -35 34 -35 34 -35 36 35 37 36 -35 35 c-18 18 -35
34 -36 34 -1 0 -17 -16 -36 -35z"/>
<path d="M1693 2646 l-93 -92 97 -98 97 -98 94 96 95 96 -93 95 c-52 52 -97
94 -100 93 -3 0 -47 -42 -97 -92z m172 -27 l68 -70 -64 -65 c-35 -35 -70 -64
-79 -64 -9 0 -44 29 -79 64 l-64 65 68 70 c38 39 71 71 75 71 4 0 37 -32 75
-71z"/>
<path d="M2080 2615 l-64 -65 64 -65 65 -65 65 65 65 65 -65 65 -65 65 -65
-65z m110 -30 c29 -30 32 -36 19 -52 -24 -31 -53 -52 -71 -53 -17 0 -68 54
-68 72 0 15 56 68 72 68 8 0 29 -16 48 -35z"/>
<path d="M2361 2585 l-34 -35 34 -34 34 -34 37 33 37 34 -36 36 c-19 19 -36
35 -36 35 -1 0 -17 -16 -36 -35z"/>
<path d="M932 1888 l-630 -626 625 -632 626 -631 96 95 96 96 -302 303 c-165
166 -404 407 -530 536 l-230 234 534 531 533 531 -94 95 -94 95 -630 -627z
m700 505 c32 -32 58 -62 58 -68 0 -5 -231 -240 -515 -521 -465 -462 -515 -515
-515 -544 0 -28 51 -82 508 -541 279 -281 509 -517 510 -526 4 -16 -104 -133
-123 -133 -13 0 -1190 1187 -1190 1200 0 11 44 56 647 658 293 292 540 532
548 532 8 0 40 -26 72 -57z"/>
<path d="M2263 2423 c-24 -24 -43 -47 -43 -51 1 -4 20 -26 43 -50 l43 -42 47
48 47 48 -47 45 -48 46 -42 -44z m67 -28 c17 -21 3 -57 -22 -53 -30 4 -45 32
-29 52 17 20 35 20 51 1z"/>
<path d="M1950 2385 l-64 -65 64 -65 65 -65 65 65 65 65 -65 65 -65 64 -65
-64z m113 -39 c9 -10 17 -24 17 -31 0 -13 -52 -65 -65 -65 -14 0 -65 52 -65
66 0 7 14 26 32 43 34 32 40 31 81 -13z"/>
<path d="M2503 2408 l-32 -33 30 -32 c16 -18 32 -33 37 -33 4 0 22 15 40 33
l32 33 -33 32 c-18 18 -35 32 -38 32 -3 0 -19 -15 -36 -32z"/>
<path d="M1515 1679 l-420 -418 425 -425 424 -425 156 156 c85 86 228 228 318
316 89 88 154 156 145 152 -89 -38 -150 -22 -176 44 -21 50 -27 355 -9 388 19
35 69 56 116 50 41 -6 38 -3 -250 289 -160 162 -295 293 -300 292 -5 0 -198
-189 -429 -419z m683 128 c133 -134 242 -248 242 -255 0 -7 -6 -12 -14 -12 -8
0 -31 -16 -50 -35 -20 -19 -38 -35 -41 -35 -2 0 -16 11 -30 25 -23 20 -84 39
-130 39 -31 0 -105 -17 -110 -25 -4 -5 -13 -5 -25 1 -10 5 -35 10 -54 10 -27
0 -40 -6 -53 -26 l-17 -26 -17 20 c-34 42 -113 36 -124 -10 -10 -40 -13 -88
-6 -92 11 -7 13 -274 2 -281 -30 -18 -191 108 -191 150 0 13 3 25 8 27 4 2 22
33 39 71 18 37 38 67 45 67 6 0 9 3 5 6 -3 3 19 53 49 110 53 103 70 155 40
124 -8 -8 -62 -105 -121 -215 -122 -228 -120 -213 -26 -292 52 -43 161 -103
187 -103 8 0 10 15 7 43 -4 34 -20 389 -19 393 1 1 20 4 44 7 l42 5 1 -136 c1
-76 4 -171 8 -212 5 -69 8 -75 29 -78 47 -7 51 9 46 156 -2 75 -6 167 -9 205
l-4 67 38 0 39 0 7 -186 c12 -288 5 -314 -91 -335 -75 -17 -166 -1 -253 43
-63 32 -166 122 -209 183 l-21 30 2 -118 c2 -107 0 -120 -17 -133 -45 -32 -46
-27 -46 211 l0 225 -42 -6 c-37 -6 -41 -5 -35 10 4 10 7 28 7 40 0 19 9 24 58
35 31 7 63 15 71 18 12 5 13 -17 8 -138 -5 -99 -3 -139 4 -129 5 8 56 103 113
210 57 107 110 198 117 202 8 4 28 10 44 15 l30 7 -39 4 c-50 4 -79 -23 -126
-115 -54 -109 -101 -184 -111 -178 -5 4 -9 28 -9 55 0 62 -7 80 -32 80 -12 0
-18 6 -16 16 4 18 488 504 503 504 6 0 120 -109 253 -243z m82 -326 c53 -38
54 -159 1 -197 -13 -10 -12 -12 6 -18 29 -9 43 -48 43 -124 0 -108 -23 -128
-154 -133 l-78 -4 -3 60 c-2 33 -7 144 -10 247 l-6 187 63 3 c80 4 107 0 138
-21z m-952 -88 c15 -10 30 -22 34 -27 9 -14 9 -316 0 -316 -6 0 -145 136 -211
206 -4 4 139 154 147 154 1 0 15 -8 30 -17z m244 -324 c62 -51 156 -102 213
-114 52 -11 164 -6 197 9 18 7 43 23 56 35 l22 22 27 -20 c46 -37 196 -21 245
26 l27 26 27 -26 c14 -14 35 -29 45 -32 10 -4 19 -12 19 -19 0 -16 -485 -500
-506 -504 -18 -4 -138 110 -357 342 l-131 138 17 30 c10 18 17 51 17 84 0 31
4 54 10 54 6 0 38 -23 72 -51z"/>
<path d="M2161 1365 c2 -57 4 -65 21 -65 41 0 58 19 58 63 0 50 -13 67 -52 67
l-29 0 2 -65z"/>
<path d="M2170 1156 l0 -76 35 0 c45 0 55 20 47 90 -7 55 -7 55 -44 58 l-38 3
0 -75z"/>
<path d="M2586 1465 c23 -67 30 -347 10 -387 -8 -16 -14 -28 -12 -28 2 0 49
46 104 103 l101 102 -93 95 c-51 52 -99 104 -106 115 -12 20 -12 20 -4 0z
m101 -152 c55 -53 56 -56 20 -95 -17 -19 -42 -38 -55 -42 -23 -8 -23 -7 -21
71 2 106 7 113 56 66z"/>
<path d="M2452 1434 c-9 -16 -6 -276 4 -322 4 -19 10 -23 37 -20 l32 3 -2 163
c-1 108 -6 168 -14 178 -15 19 -46 18 -57 -2z"/>
</g>
</svg>
