<?xml version="1.0" standalone="no"?>
<!DOCTYPE svg PUBLIC "-//W3C//DTD SVG 20010904//EN"
 "http://www.w3.org/TR/2001/REC-SVG-20010904/DTD/svg10.dtd">
<svg version="1.0" xmlns="http://www.w3.org/2000/svg"
 width="300.000000pt" height="300.000000pt" viewBox="0 0 300.000000 300.000000"
 preserveAspectRatio="xMidYMid meet">
<metadata>
Created by potrace 1.10, written by Peter Selinger 2001-2011
</metadata>
<g transform="translate(0.000000,300.000000) scale(0.100000,-0.100000)"
fill="#04baf8" stroke="none">
<path d="M1357 2637 l-78 -30 103 -43 c57 -24 108 -43 114 -44 6 0 36 11 65
23 30 13 63 27 74 31 16 6 -4 17 -90 52 -60 24 -109 44 -110 43 0 -1 -35 -15
-78 -32z m217 -40 l29 -10 -58 -24 -58 -24 -48 20 c-26 12 -60 26 -76 32 l-28
11 55 23 54 23 51 -20 c27 -11 63 -25 79 -31z"/>
<path d="M1420 2613 l-35 -15 48 -18 c42 -16 52 -17 80 -5 l32 13 -28 11 c-16
6 -36 15 -45 20 -11 5 -30 3 -52 -6z"/>
<path d="M1590 2665 c0 -7 30 -13 34 -7 3 4 -4 9 -15 9 -10 1 -19 0 -19 -2z"/>
<path d="M1205 2577 c-39 -13 -42 -16 -25 -28 11 -8 5 -9 -22 -4 -24 4 -38 2
-38 -5 0 -5 3 -10 8 -11 71 -5 142 -4 142 2 0 5 -5 9 -11 9 -5 0 -7 5 -4 10 3
6 0 10 -7 10 -11 0 -10 2 0 9 22 14 -8 20 -43 8z"/>
<path d="M1278 2571 c8 -4 13 -11 13 -15 -4 -30 1 -36 27 -34 15 1 32 -1 38
-4 5 -4 16 -3 24 3 12 7 11 9 -5 9 -17 0 -17 2 -5 10 17 11 14 12 -40 14 -14
1 -24 6 -22 14 1 7 -8 12 -20 12 -17 0 -19 -3 -10 -9z"/>
<path d="M1648 2553 c6 -2 12 -11 12 -18 0 -7 11 -16 25 -19 14 -4 23 -11 20
-16 -3 -6 -1 -10 4 -10 6 0 10 -5 9 -12 -2 -6 6 -14 17 -16 17 -4 18 -2 6 12
-11 14 -11 16 3 16 30 0 16 17 -24 30 -22 7 -40 19 -40 27 0 7 -10 13 -22 12
-13 0 -17 -3 -10 -6z"/>
<path d="M1700 2550 c0 -5 9 -10 21 -10 11 0 17 5 14 10 -3 6 -13 10 -21 10
-8 0 -14 -4 -14 -10z"/>
<path d="M1610 2530 c19 -13 30 -13 30 0 0 6 -10 10 -22 10 -19 0 -20 -2 -8
-10z"/>
<path d="M1946 2532 c-2 -4 4 -8 14 -8 10 0 16 4 14 8 -3 4 -9 8 -14 8 -5 0
-11 -4 -14 -8z"/>
<path d="M1045 2510 c3 -5 15 -10 26 -10 11 0 17 5 14 10 -3 6 -15 10 -26 10
-11 0 -17 -4 -14 -10z"/>
<path d="M1425 2510 c3 -5 15 -10 26 -10 11 0 17 5 14 10 -3 6 -15 10 -26 10
-11 0 -17 -4 -14 -10z"/>
<path d="M1568 2512 c8 -5 12 -13 10 -18 -1 -5 11 -10 28 -11 18 0 42 -7 54
-13 16 -9 25 -9 33 -1 8 8 8 11 -2 11 -7 0 -9 5 -6 10 6 10 4 11 -42 15 -16 1
-41 5 -58 9 -20 5 -25 4 -17 -2z"/>
<path d="M1208 2503 c-21 -5 -24 -23 -5 -23 9 0 9 -2 -1 -9 -11 -7 -10 -10 3
-15 22 -8 41 4 24 15 -11 7 -8 11 9 15 18 5 20 9 10 15 -7 5 -15 8 -18 8 -3
-1 -13 -3 -22 -6z"/>
<path d="M1775 2500 c3 -5 15 -10 26 -10 11 0 17 5 14 10 -3 6 -15 10 -26 10
-11 0 -17 -4 -14 -10z"/>
<path d="M1830 2500 c0 -5 6 -10 13 -10 8 0 7 -4 -3 -10 -12 -8 -12 -10 5 -10
19 -1 19 -1 2 -15 -19 -14 -51 -10 -42 5 8 12 -27 22 -39 10 -7 -7 -6 -10 3
-10 7 0 9 -5 6 -10 -4 -6 8 -13 25 -16 21 -5 29 -11 26 -20 -3 -8 -1 -14 5
-14 6 0 8 -4 5 -9 -7 -10 24 -25 33 -16 3 3 -1 10 -8 14 -20 13 18 31 44 21
19 -7 19 -8 -5 -18 -23 -9 -23 -11 -6 -18 11 -4 27 -2 38 5 11 7 27 9 37 6 10
-3 29 -1 43 4 14 5 30 5 40 0 10 -6 19 -6 22 0 4 5 -13 16 -36 23 -24 8 -42
19 -41 24 3 15 -28 27 -40 15 -8 -8 -6 -11 8 -11 15 0 16 -3 7 -12 -9 -9 -15
-9 -23 -1 -7 7 -25 9 -40 6 -17 -3 -29 -1 -29 5 0 6 10 12 23 15 20 3 19 5
-10 16 -18 7 -31 17 -28 21 3 4 -2 11 -11 14 -21 8 -24 8 -24 -4z"/>
<path d="M1312 2492 c-9 -6 -5 -12 13 -20 31 -14 68 -17 46 -3 -7 5 -10 14 -7
20 8 13 -32 15 -52 3z"/>
<path d="M1380 2490 c0 -5 5 -10 11 -10 5 0 7 -4 4 -10 -7 -11 4 -13 49 -10
18 1 26 -2 22 -9 -4 -6 -14 -11 -22 -11 -8 0 -14 -4 -14 -10 0 -13 40 -13 60
0 11 7 12 10 2 10 -8 0 -12 6 -9 13 2 7 -15 19 -42 29 -53 21 -61 22 -61 8z"/>
<path d="M1500 2490 c-11 -7 -11 -10 -2 -10 7 0 11 -4 7 -9 -3 -5 -1 -12 5
-16 6 -4 8 -11 5 -16 -4 -5 -1 -9 5 -9 6 0 9 -4 5 -9 -3 -5 -1 -12 5 -16 6 -4
8 -11 5 -16 -4 -5 6 -8 22 -8 16 1 21 3 11 6 -10 2 -15 10 -11 19 3 8 -1 14
-8 14 -11 0 -11 3 1 10 13 8 12 10 -4 10 -11 0 -16 3 -13 7 4 3 2 12 -4 20 -9
10 -8 13 4 13 9 0 19 5 22 10 8 13 -35 13 -55 0z"/>
<path d="M1020 2479 c-18 -8 -21 -12 -11 -18 11 -7 11 -9 0 -14 -9 -3 -1 -11
21 -20 30 -13 38 -13 62 -1 30 16 93 20 69 5 -11 -7 -6 -13 19 -26 23 -12 35
-14 43 -6 8 8 8 11 -1 11 -6 0 -9 6 -6 13 3 8 -12 19 -41 29 -41 15 -48 16
-81 2 -54 -23 -80 -8 -29 16 40 18 40 18 10 19 -16 0 -41 -5 -55 -10z"/>
<path d="M940 2471 c0 -13 25 -20 39 -11 10 5 8 9 -4 14 -23 8 -35 8 -35 -3z"/>
<path d="M1556 2461 c-3 -5 3 -11 14 -14 24 -6 36 8 14 17 -20 8 -22 8 -28 -3z"/>
<path d="M886 2452 c-7 -11 61 -35 75 -26 7 4 -1 12 -21 20 -37 16 -47 17 -54
6z"/>
<path d="M1293 2446 c23 -17 1 -28 -27 -14 -12 7 -22 6 -29 -1 -8 -8 -6 -11 9
-11 14 0 16 -2 5 -9 -9 -6 0 -13 33 -26 51 -20 63 -40 16 -30 -35 8 -73 -2
-64 -16 3 -6 18 -8 32 -5 15 3 34 2 42 -4 13 -9 13 -10 0 -10 -21 -1 30 -29
54 -30 14 0 16 3 7 13 -6 8 -8 17 -4 20 3 4 -2 7 -13 8 -14 0 -12 4 10 13 26
12 27 14 11 23 -15 9 -14 11 11 18 26 7 27 8 9 15 -19 8 -19 8 4 17 17 7 21
12 12 17 -6 4 -18 5 -26 2 -8 -3 -30 1 -49 9 -45 19 -67 19 -43 1z m77 -36 c0
-5 -11 -10 -25 -10 -14 0 -25 5 -25 10 0 6 11 10 25 10 14 0 25 -4 25 -10z"/>
<path d="M1632 2443 c-10 -4 -10 -8 -1 -19 6 -8 8 -14 3 -14 -5 0 -3 -4 5 -9
8 -5 21 -7 29 -3 13 4 12 7 -4 13 -18 7 -18 8 3 15 13 3 20 10 17 15 -6 10
-31 11 -52 2z"/>
<path d="M1700 2440 c0 -5 5 -10 11 -10 5 0 7 -4 4 -10 -3 -5 -1 -10 6 -10 7
0 9 -3 6 -7 -4 -3 -2 -12 5 -20 9 -11 0 -13 -58 -8 -37 3 -64 1 -59 -3 21 -18
62 -30 75 -22 14 9 40 3 40 -9 0 -4 -15 -12 -32 -20 -30 -11 -31 -13 -13 -21
12 -5 14 -9 6 -9 -11 -1 -10 -4 3 -14 16 -12 16 -15 4 -19 -19 -8 -42 7 -34
21 4 6 2 11 -4 11 -6 0 -9 4 -5 9 8 15 -35 34 -72 33 -25 -1 -31 2 -26 14 4
11 -2 15 -28 14 -19 -1 -55 1 -81 4 -27 2 -48 0 -48 -5 0 -5 16 -9 36 -9 40 0
77 -16 69 -31 -7 -10 5 -12 48 -9 15 1 27 -3 27 -9 0 -14 -34 -23 -63 -16 -14
4 -28 2 -31 -4 -7 -11 8 -14 57 -11 38 2 34 -14 -8 -29 -28 -10 -43 -10 -71
-1 -26 9 -33 15 -23 21 27 17 -18 21 -56 5 -47 -20 -69 -20 -62 -2 8 21 -21
28 -47 11 -21 -14 -27 -13 -73 8 -28 13 -48 28 -45 35 2 7 -2 12 -10 12 -10 0
-10 2 1 9 18 11 43 3 38 -13 -3 -10 43 -36 64 -36 20 0 7 20 -17 26 -16 4 -23
12 -20 20 3 9 -4 16 -20 20 -14 4 -23 11 -21 18 6 18 -50 37 -78 26 -33 -13
-32 -22 3 -20 47 3 63 0 57 -10 -4 -6 -22 -8 -43 -5 -25 5 -33 3 -23 -3 7 -5
11 -14 7 -20 -3 -6 0 -12 6 -15 7 -2 -5 -12 -27 -22 -22 -9 -35 -19 -28 -22 7
-2 9 -11 6 -19 -4 -10 3 -14 23 -14 26 1 27 2 12 14 -16 12 -16 14 7 24 20 9
34 7 77 -13 l52 -24 -30 -12 c-26 -10 -27 -12 -9 -19 11 -4 27 -4 35 0 16 8
40 3 40 -9 0 -4 -10 -12 -23 -18 -18 -8 -31 -7 -57 7 -33 17 -36 17 -76 -3
-27 -13 -49 -17 -60 -12 -17 7 -16 9 10 20 43 18 13 30 -35 15 -28 -10 -43
-10 -50 -3 -8 8 0 14 25 23 20 6 36 15 36 20 0 19 -30 15 -95 -15 l-69 -32 57
-26 c70 -32 72 -32 119 -23 53 11 69 1 28 -16 -32 -14 -33 -15 -13 -22 15 -5
38 1 73 19 45 23 56 25 86 15 19 -6 34 -15 34 -19 0 -15 -46 -29 -62 -20 -10
6 -28 4 -49 -5 -30 -13 -31 -14 -11 -20 12 -4 26 -4 32 -1 6 3 20 3 31 0 17
-6 18 -9 8 -16 -7 -4 -11 -10 -9 -12 14 -11 283 -127 296 -127 25 0 15 16 -19
28 -18 6 -42 19 -52 28 -19 14 -18 15 17 9 20 -3 39 -1 42 4 8 12 -20 22 -39
15 -8 -4 -23 -3 -32 1 -16 6 -14 9 10 21 19 10 33 12 45 5 11 -6 24 -6 32 -1
11 7 8 11 -13 19 -16 6 -50 20 -77 32 -27 11 -54 18 -60 14 -8 -5 2 -14 25
-24 l38 -16 -29 -14 c-27 -12 -28 -14 -9 -21 18 -7 18 -9 3 -15 -9 -4 -25 -2
-35 4 -10 6 -12 11 -5 11 6 0 12 5 12 11 0 7 -12 10 -32 7 -45 -7 -62 0 -47
18 9 11 8 14 -7 14 -14 0 -15 3 -6 12 8 8 17 8 34 0 13 -6 17 -11 10 -11 -21
-1 -3 -21 19 -21 10 0 19 5 19 10 0 6 -4 10 -10 10 -5 0 -7 6 -4 14 4 10 -5
16 -25 21 -38 8 -40 21 -5 29 25 7 26 8 8 21 -18 13 -17 14 10 15 21 0 27 -4
23 -15 -8 -18 9 -29 31 -20 15 6 15 8 -3 15 -18 6 -17 8 10 23 20 11 24 16 13
17 -29 0 -20 18 12 25 35 8 60 -3 39 -16 -12 -7 -12 -9 -1 -9 8 0 12 -6 9 -12
-2 -8 17 -22 46 -34 l51 -22 -39 -19 c-44 -23 -31 -42 15 -23 39 16 108 -4 89
-26 -9 -11 -8 -14 6 -14 14 0 15 -3 6 -14 -9 -11 -8 -15 6 -18 31 -8 46 2 26
18 -14 10 -14 13 -4 14 11 0 11 3 -3 13 -17 12 -16 14 6 24 19 8 34 6 76 -11
62 -25 68 -40 12 -31 -49 8 -53 -6 -6 -23 27 -10 40 -10 60 0 24 10 25 13 10
21 -13 8 -14 11 -3 18 11 7 10 9 -5 9 -12 0 -16 5 -13 14 4 10 -5 19 -30 27
-25 8 -32 14 -22 20 11 6 10 9 -3 14 -9 4 -33 -2 -55 -13 -37 -20 -39 -20 -73
-1 -19 10 -28 18 -20 19 12 0 11 3 -3 11 -10 6 -24 8 -32 5 -16 -6 -75 15 -75
26 0 13 90 22 120 12 11 -4 12 -7 2 -13 -9 -5 1 -13 28 -23 23 -10 42 -12 46
-7 3 5 -2 12 -11 15 -13 6 -14 8 -3 15 10 7 9 9 -4 9 -10 0 -18 5 -18 10 0 13
30 13 50 0 13 -9 13 -10 0 -10 -12 -1 -11 -3 3 -11 9 -5 22 -7 27 -4 18 11 80
-15 73 -31 -5 -15 4 -17 50 -14 36 2 35 -14 -3 -30 -34 -14 -30 -35 5 -26 30
8 62 -3 44 -15 -8 -5 0 -13 26 -23 44 -19 55 -20 55 -6 0 6 -7 10 -16 10 -14
0 -14 3 -4 15 10 12 10 15 -3 15 -10 0 -14 6 -11 14 3 8 -2 16 -13 19 -14 3
-12 6 12 17 27 11 28 13 10 20 -11 4 -27 4 -36 -1 -8 -4 -22 -3 -30 2 -23 15
9 31 49 24 58 -10 34 11 -49 43 -96 38 -137 41 -59 4 35 -16 49 -27 38 -29 -9
-2 -31 3 -48 12 -21 11 -36 13 -42 7 -5 -5 -19 -7 -30 -4 -20 5 -20 5 3 23 13
10 18 19 12 19 -7 0 -13 4 -13 9 0 10 73 7 101 -4 10 -3 20 -2 24 4 3 6 -1 11
-9 11 -9 0 -16 5 -16 10 0 11 11 13 34 4 9 -3 13 -10 10 -15 -7 -12 82 -50
101 -43 21 8 53 -5 37 -15 -7 -4 1 -12 24 -20 35 -13 35 -13 15 -27 -21 -15
-54 -7 -51 12 0 5 -10 10 -22 12 -22 2 -22 2 -5 -12 11 -8 14 -15 7 -18 -6 -2
23 -17 64 -34 66 -28 78 -30 95 -18 23 16 52 8 44 -12 -3 -9 2 -14 13 -14 15
0 16 -2 5 -9 -23 -15 25 -24 51 -10 l23 13 -25 6 -25 6 23 13 c12 7 31 9 42 6
10 -3 33 1 51 11 28 14 30 18 16 26 -10 5 -23 5 -34 -1 -20 -10 -153 -8 -171
2 -6 4 -13 3 -16 -2 -7 -10 -46 -3 -46 9 0 12 43 20 68 13 13 -3 22 -1 22 6 0
6 -19 11 -46 11 -25 0 -43 4 -40 9 3 5 25 8 49 6 23 -2 49 -4 57 -4 13 -1 13
-2 0 -11 -12 -7 -12 -10 4 -16 10 -4 27 -2 37 5 11 6 30 8 44 5 14 -3 31 -1
38 4 7 6 23 8 36 5 15 -4 19 -8 11 -13 -9 -5 -6 -10 10 -15 15 -5 28 -2 38 9
15 15 15 16 -1 16 -9 0 -17 5 -17 10 0 13 23 13 37 -1 6 -6 17 -8 23 -4 9 6 8
10 -4 17 -9 5 -14 13 -12 17 3 4 -18 15 -45 24 -27 10 -47 22 -44 26 2 5 -18
18 -45 29 -27 11 -52 17 -55 12 -3 -4 1 -11 7 -13 10 -4 9 -8 -2 -16 -16 -11
-30 -8 -88 16 -32 13 -33 15 -16 28 18 14 18 14 -1 15 -17 0 -17 2 -5 10 10 6
11 10 3 10 -7 0 -13 6 -13 14 0 8 -7 16 -15 19 -18 7 -30 -9 -13 -16 24 -10
-15 -27 -46 -21 -41 9 -25 -10 23 -26 23 -7 41 -17 41 -22 0 -12 -13 -10 -53
7 -20 8 -38 11 -41 6 -3 -5 9 -14 27 -21 31 -11 31 -12 10 -22 -25 -12 -58 -4
-48 12 3 5 1 10 -5 10 -6 0 -9 4 -6 9 7 11 -20 22 -38 15 -8 -3 -24 0 -36 6
-24 13 -110 22 -110 11 0 -3 19 -13 43 -22 23 -8 41 -20 40 -27 -3 -12 8 -16
41 -12 28 3 79 -21 68 -32 -6 -6 -17 -6 -28 0 -11 5 -25 7 -32 5 -17 -6 -73
17 -67 27 3 4 -9 13 -26 20 -23 10 -36 10 -55 1 -17 -7 -31 -8 -42 -1 -9 5
-13 10 -8 10 5 0 2 7 -5 17 -13 15 -10 16 26 9 36 -6 38 -5 22 8 -18 14 -17
15 5 22 22 7 22 8 -10 21 -18 7 -30 17 -27 22 3 5 -9 14 -27 20 -38 13 -38 13
-38 1z m-65 -139 c3 -5 1 -12 -4 -15 -12 -8 -41 3 -41 15 0 12 37 12 45 0z
m603 -46 c2 -2 -10 -11 -27 -19 -22 -12 -36 -13 -55 -6 -14 6 -38 15 -53 20
l-27 11 30 18 c28 18 31 18 79 -1 28 -11 52 -21 53 -23z m92 15 c0 -12 -26
-19 -50 -13 l-22 6 23 12 c23 13 49 10 49 -5z m-710 -20 c-19 -13 -30 -13 -30
0 0 6 10 10 23 10 18 0 19 -2 7 -10z m455 -10 c3 -5 3 -15 0 -20 -7 -12 -45 5
-45 20 0 13 37 13 45 0z m288 -10 c8 0 8 -3 1 -10 -12 -12 -44 -3 -44 12 0 6
7 7 16 4 9 -3 21 -6 27 -6z m-1013 -10 c0 -13 -30 -13 -50 0 -11 7 -7 10 18
10 17 0 32 -4 32 -10z m929 1 c8 -5 9 -11 3 -15 -14 -8 -43 4 -36 15 7 11 15
11 33 0z m-447 -59 c-19 -6 -44 6 -37 18 4 7 14 6 28 -2 14 -7 17 -13 9 -16z"/>
<path d="M2140 2260 c0 -5 12 -10 28 -10 21 0 24 2 12 10 -20 13 -40 13 -40 0z"/>
<path d="M865 2410 c3 -5 15 -10 26 -10 10 0 19 5 19 10 0 6 -12 10 -26 10
-14 0 -23 -4 -19 -10z"/>
<path d="M966 2400 c-42 -17 -36 -35 7 -24 14 3 28 1 31 -5 4 -6 1 -11 -6 -11
-24 -1 37 -29 62 -29 23 0 23 1 6 10 -14 9 -15 13 -5 19 9 6 5 11 -15 16 -16
4 -25 12 -22 19 8 21 -16 23 -58 5z"/>
<path d="M1580 2410 c0 -5 9 -10 21 -10 11 0 17 5 14 10 -3 6 -13 10 -21 10
-8 0 -14 -4 -14 -10z"/>
<path d="M705 2379 c-38 -16 -78 -33 -89 -37 -14 -6 8 -19 100 -60 l117 -52
98 42 98 42 -110 48 c-60 26 -117 48 -127 47 -9 0 -48 -14 -87 -30z m190 -30
c36 -16 65 -31 65 -33 0 -1 -29 -15 -65 -31 l-65 -27 -53 22 c-28 13 -68 29
-87 37 l-34 15 69 28 c78 31 79 31 170 -11z"/>
<path d="M763 2348 c-18 -6 -33 -14 -33 -17 0 -3 21 -14 46 -25 40 -16 50 -17
85 -6 21 7 39 16 39 19 0 7 -81 41 -95 40 -6 -1 -25 -6 -42 -11z"/>
<path d="M1960 2360 c-11 -7 -7 -10 17 -10 17 0 35 5 38 10 8 13 -35 13 -55 0z"/>
<path d="M2195 2360 c-4 -6 -4 -10 -1 -10 2 0 11 -3 20 -6 9 -3 16 -2 16 4 0
14 -28 23 -35 12z"/>
<path d="M349 2353 c-4 -36 0 -316 6 -321 3 -4 6 20 6 53 -3 218 -2 223 15
233 16 9 15 10 -5 17 -11 3 -19 11 -16 16 4 5 4 9 1 9 -3 0 -6 -3 -7 -7z"/>
<path d="M1385 2320 c3 -5 15 -10 26 -10 10 0 19 5 19 10 0 6 -12 10 -26 10
-14 0 -23 -4 -19 -10z"/>
<path d="M1440 2320 c0 -5 12 -10 26 -10 14 0 23 4 19 10 -3 6 -15 10 -26 10
-10 0 -19 -4 -19 -10z"/>
<path d="M2190 2321 c0 -12 28 -22 35 -12 3 5 -2 12 -11 15 -21 8 -24 8 -24
-3z"/>
<path d="M447 2289 c7 -7 15 -10 18 -7 3 3 -2 9 -12 12 -14 6 -15 5 -6 -5z"/>
<path d="M2365 2290 c-7 -12 27 -22 37 -12 6 6 1 12 -11 15 -12 3 -23 2 -26
-3z"/>
<path d="M481 2277 c2 -1 13 -9 24 -17 19 -14 19 -14 6 3 -7 9 -18 17 -24 17
-6 0 -8 -1 -6 -3z"/>
<path d="M2600 2270 c0 -5 5 -10 11 -10 5 0 7 5 4 10 -3 6 -8 10 -11 10 -2 0
-4 -4 -4 -10z"/>
<path d="M1110 2261 c0 -13 25 -20 39 -11 10 5 8 9 -4 14 -23 8 -35 8 -35 -3z"/>
<path d="M550 2246 c0 -2 7 -7 16 -10 8 -3 12 -2 9 4 -6 10 -25 14 -25 6z"/>
<path d="M2455 2230 c3 -5 15 -10 26 -10 11 0 17 5 14 10 -3 6 -15 10 -26 10
-11 0 -17 -4 -14 -10z"/>
<path d="M2720 2232 c0 -9 -94 -71 -614 -409 -143 -92 -262 -175 -264 -183 -3
-9 6 -6 24 9 31 24 193 131 484 318 96 62 180 116 185 120 22 17 95 63 101 63
3 0 17 9 31 20 15 11 28 19 30 17 3 -4 -23 -110 -99 -397 -16 -63 -34 -131
-40 -150 -5 -19 -13 -51 -17 -70 -5 -19 -27 -105 -49 -190 -22 -85 -57 -218
-77 -295 -20 -77 -40 -144 -43 -150 -7 -11 -145 -141 -228 -215 -130 -116
-249 -225 -367 -335 -71 -66 -143 -130 -160 -142 -17 -13 -35 -29 -39 -37 -6
-11 -67 22 -270 143 -298 178 -454 271 -483 287 -11 6 -44 25 -73 42 -29 18
-55 32 -57 32 -3 0 -29 16 -59 35 -30 19 -57 35 -60 35 -3 0 -36 19 -73 43
-38 23 -84 51 -104 61 -67 35 -67 36 -69 122 -1 43 1 189 5 324 4 135 9 319
11 409 2 90 6 166 8 168 5 5 -3 59 -12 84 -4 10 -7 -43 -8 -119 0 -355 -5
-586 -12 -575 -4 6 -7 -59 -7 -145 0 -87 -4 -173 -8 -193 -7 -34 -5 -37 23
-49 16 -7 30 -16 30 -21 0 -5 5 -9 11 -9 13 0 1067 -624 1162 -688 l38 -25 56
54 c31 30 63 61 72 69 34 31 238 217 311 284 164 151 198 183 253 234 31 30
57 51 57 48 0 -3 15 11 34 31 28 32 40 61 70 173 20 74 39 146 42 160 6 32
109 431 205 795 22 83 42 158 44 168 2 10 7 27 10 38 4 10 4 19 1 19 -3 0 -6
-4 -6 -8z"/>
<path d="M620 2210 c8 -5 20 -10 25 -10 6 0 3 5 -5 10 -8 5 -19 10 -25 10 -5
0 -3 -5 5 -10z"/>
<path d="M720 2167 c8 -8 26 -18 40 -22 32 -9 25 -3 -20 19 -25 12 -31 13 -20
3z"/>
<path d="M1385 2170 c-3 -5 0 -12 6 -16 8 -5 8 -9 -1 -14 -24 -15 28 -22 55
-7 l27 13 -41 16 c-23 9 -43 13 -46 8z"/>
<path d="M470 2063 c0 -37 -3 -98 -6 -135 l-7 -66 113 -57 c62 -31 113 -55
115 -53 2 2 7 62 12 135 l8 132 -110 53 c-60 29 -113 54 -117 56 -5 2 -8 -27
-8 -65z m194 -163 c-4 -52 -7 -96 -8 -97 -1 -1 -39 17 -84 40 -54 28 -80 47
-77 55 3 8 5 51 5 97 l0 84 85 -42 85 -41 -6 -96z"/>
<path d="M530 1962 l0 -58 45 -22 c25 -12 48 -22 50 -22 3 0 5 26 5 58 l0 58
-45 22 c-25 12 -48 22 -50 22 -3 0 -5 -26 -5 -58z m70 -33 c0 -27 -2 -28 -20
-17 -11 7 -20 23 -20 34 0 17 5 21 20 17 14 -4 20 -14 20 -34z"/>
<path d="M810 2127 c10 -10 250 -122 250 -116 0 3 -52 30 -116 60 -124 57
-142 65 -134 56z"/>
<path d="M1945 2104 c11 -8 20 -18 20 -22 0 -4 11 -7 25 -7 14 -1 30 -4 35 -7
6 -4 17 -3 24 1 8 5 -6 15 -40 29 -62 26 -95 29 -64 6z"/>
<path d="M1530 2070 c0 -5 11 -10 25 -10 14 0 25 5 25 10 0 6 -11 10 -25 10
-14 0 -25 -4 -25 -10z"/>
<path d="M2075 2049 c-18 -11 -24 -19 -15 -20 8 0 36 -2 63 -4 26 -2 47 0 47
5 0 6 -7 10 -15 10 -9 0 -12 6 -9 15 9 22 -34 18 -71 -6z"/>
<path d="M1970 2023 c-17 -12 -27 -13 -46 -5 -14 7 -26 8 -29 2 -3 -5 11 -17
32 -26 109 -46 110 -46 135 -33 23 12 23 13 -14 29 -26 11 -34 20 -27 27 17
17 -27 23 -51 6z"/>
<path d="M2554 1994 l-61 -44 -31 -122 c-17 -67 -30 -124 -28 -125 1 -2 30 18
64 43 65 48 62 42 97 184 8 36 20 75 25 88 13 30 5 27 -66 -24z m30 -51 c-7
-27 -18 -66 -23 -89 -8 -31 -22 -48 -57 -74 -37 -27 -45 -29 -41 -14 3 10 13
51 22 90 15 64 21 74 58 102 23 17 45 31 48 31 4 1 1 -20 -7 -46z"/>
<path d="M2533 1918 c-19 -20 -49 -105 -41 -113 11 -11 48 39 61 83 16 57 11
64 -20 30z"/>
<path d="M1495 2021 c-3 -6 1 -14 10 -17 13 -5 14 -9 4 -15 -29 -18 23 -21 61
-4 45 20 44 36 -3 33 -18 -1 -39 2 -48 6 -10 4 -20 3 -24 -3z"/>
<path d="M1820 2015 l-25 -13 25 -10 c14 -6 56 -24 93 -41 38 -17 75 -31 83
-31 31 0 10 17 -57 44 -45 19 -68 33 -65 42 3 7 -2 15 -10 18 -19 7 -14 8 -44
-9z"/>
<path d="M1617 1975 c-44 -25 -83 -45 -88 -45 -5 0 -9 -3 -9 -7 1 -11 260
-125 274 -121 18 5 165 92 166 99 0 4 -211 100 -255 115 -5 2 -45 -17 -88 -41z
m184 -25 c51 -22 94 -42 96 -44 2 -2 -24 -20 -58 -40 l-62 -37 -99 44 -99 44
63 36 c35 20 64 36 65 36 1 1 43 -17 94 -39z"/>
<path d="M1685 1937 l-40 -20 59 -27 59 -27 38 21 c21 11 37 22 35 23 -1 1
-27 13 -57 27 l-54 24 -40 -21z m70 -27 c8 -13 -5 -13 -25 0 -13 8 -13 10 2
10 9 0 20 -4 23 -10z"/>
<path d="M1070 2006 c0 -2 7 -7 16 -10 8 -3 12 -2 9 4 -6 10 -25 14 -25 6z"/>
<path d="M1147 1969 c7 -7 15 -10 18 -7 3 3 -2 9 -12 12 -14 6 -15 5 -6 -5z"/>
<path d="M800 1930 c0 -29 5 -42 20 -50 19 -10 20 -8 20 34 0 31 -5 46 -16 50
-24 9 -24 9 -24 -34z"/>
<path d="M730 1940 c0 -11 2 -20 4 -20 2 0 11 -3 20 -6 11 -4 16 0 16 14 0 11
-7 23 -16 26 -23 9 -24 8 -24 -14z"/>
<path d="M1185 1950 c3 -4 14 -10 25 -13 11 -3 18 -2 15 3 -3 4 -14 10 -25 13
-11 3 -18 2 -15 -3z"/>
<path d="M870 1920 c0 -10 9 -24 20 -30 11 -6 20 -19 20 -30 0 -14 16 -28 50
-45 48 -24 50 -25 50 -5 0 14 -15 27 -50 45 -32 16 -50 32 -50 43 0 19 -18 42
-32 42 -4 0 -8 -9 -8 -20z"/>
<path d="M1270 1910 c19 -11 40 -19 45 -19 6 0 -6 8 -25 19 -19 11 -39 19 -45
19 -5 0 6 -8 25 -19z"/>
<path d="M2423 1902 c-13 -9 -32 -34 -43 -54 -22 -42 -25 -52 -10 -43 6 3 7
-1 4 -9 -3 -9 -1 -16 6 -16 6 0 8 -4 5 -10 -3 -5 -2 -18 4 -27 9 -17 10 -17
17 2 4 11 14 28 22 37 12 15 13 23 2 47 -13 32 -4 64 11 40 13 -21 22 -3 13
25 -9 24 -10 24 -31 8z m-22 -105 c-8 -8 -11 -7 -11 4 0 9 3 19 7 23 4 4 9 2
11 -4 3 -7 -1 -17 -7 -23z"/>
<path d="M1335 1880 c3 -5 11 -10 16 -10 6 0 7 5 4 10 -3 6 -11 10 -16 10 -6
0 -7 -4 -4 -10z"/>
<path d="M730 1861 c0 -10 7 -21 15 -25 8 -3 15 -15 15 -26 0 -18 -3 -19 -21
-10 -19 11 -20 9 -17 -31 3 -40 28 -70 28 -34 0 12 6 15 20 10 17 -6 20 -2 20
30 0 32 3 36 20 30 15 -5 20 -2 20 12 0 13 -16 27 -45 41 -55 27 -55 27 -55 3z"/>
<path d="M1017 1846 c7 -34 33 -43 33 -12 0 13 -7 27 -16 30 -22 8 -22 9 -17
-18z"/>
<path d="M1400 1850 c19 -11 40 -19 45 -19 6 0 -6 8 -25 19 -19 11 -39 19 -45
19 -5 0 6 -8 25 -19z"/>
<path d="M2355 1855 c-5 -11 -10 -24 -13 -30 -3 -5 3 -3 13 7 9 9 15 22 12 30
-3 9 -7 7 -12 -7z"/>
<path d="M870 1837 c0 -14 -3 -33 -6 -41 -5 -12 8 -23 50 -42 40 -18 56 -31
56 -45 0 -21 -10 -25 -27 -8 -7 7 -12 -1 -16 -28 -5 -29 -3 -41 10 -51 13 -9
16 -25 14 -65 -3 -60 -3 -60 -25 -51 -11 4 -16 14 -13 25 4 13 -5 24 -29 38
-29 17 -34 26 -34 56 0 31 3 35 19 30 16 -5 19 0 23 30 4 34 1 38 -34 56 -38
19 -38 19 -38 0 0 -11 9 -25 20 -31 25 -13 27 -43 3 -38 -9 2 -20 14 -23 27
-6 28 -30 41 -30 16 0 -12 -6 -15 -20 -10 -14 5 -20 2 -20 -9 0 -21 -7 -20
-57 9 -41 22 -43 23 -43 5 0 -12 13 -26 30 -35 28 -15 30 -19 30 -75 l0 -59
-35 20 c-35 21 -35 21 -35 1 0 -11 7 -22 15 -26 8 -3 15 -15 15 -26 0 -20 -1
-20 -30 -5 -25 13 -30 21 -30 53 0 35 -4 40 -44 59 -24 12 -46 30 -49 42 -6
25 -4 25 33 6 28 -15 30 -14 30 4 0 11 -12 23 -30 31 -18 8 -30 20 -30 31 0
24 2 24 50 -1 48 -24 50 -24 49 -2 0 11 -26 30 -76 55 -42 20 -77 36 -78 35
-1 -2 -5 -33 -8 -71 -5 -66 -4 -68 24 -84 28 -17 44 -41 35 -51 -3 -2 -17 3
-30 12 -32 20 -36 20 -36 -2 0 -12 21 -28 64 -49 64 -32 65 -33 59 -67 -5 -31
-2 -36 25 -50 18 -9 32 -25 34 -38 2 -13 11 -24 22 -26 18 -4 17 -2 -4 33 -12
20 -20 38 -18 41 11 10 38 -9 38 -26 0 -10 14 -28 30 -40 l30 -21 0 21 c0 11
-7 23 -15 26 -15 6 -22 44 -7 44 17 -1 32 -18 27 -32 -4 -9 6 -21 30 -33 20
-11 35 -27 35 -37 0 -21 -11 -23 -28 -6 -9 9 -12 8 -12 -8 0 -11 13 -27 30
-37 17 -10 30 -26 30 -36 0 -11 7 -21 15 -25 8 -3 15 -15 15 -27 0 -17 -3 -19
-14 -10 -11 9 -15 5 -19 -21 -4 -23 0 -37 11 -46 14 -11 18 -10 20 3 5 21 26
14 30 -11 2 -10 11 -24 19 -31 10 -8 14 -23 11 -43 -3 -23 0 -34 13 -41 10 -5
16 -15 13 -23 -3 -8 9 -22 31 -36 22 -13 34 -28 31 -36 -3 -7 4 -20 14 -27 11
-8 17 -17 14 -20 -8 -8 14 -37 27 -37 15 0 10 27 -7 41 -13 10 -14 27 -9 94 6
68 4 83 -9 94 -9 7 -16 21 -16 31 0 10 -7 20 -15 24 -8 3 -15 15 -15 27 0 18
2 19 15 9 20 -17 33 -4 17 18 -29 41 -28 58 2 46 9 -4 15 -13 12 -21 -3 -7 3
-22 14 -33 26 -26 26 -43 0 -35 -24 8 -29 -22 -5 -31 8 -4 15 -14 15 -24 0
-10 7 -23 15 -30 9 -7 14 -19 11 -27 -3 -7 3 -19 14 -25 16 -10 18 -20 13 -61
-5 -40 -3 -51 10 -59 10 -5 17 -19 17 -30 0 -17 -3 -19 -12 -10 -19 19 -28 14
-28 -18 0 -35 -1 -35 -40 -15 -18 9 -30 24 -30 35 0 18 -17 37 -26 28 -2 -3
-7 -32 -10 -65 -7 -61 -6 -61 25 -77 35 -19 44 -52 11 -41 -15 5 -20 2 -20
-11 0 -13 -3 -14 -14 -5 -10 9 -15 8 -19 -3 -4 -9 6 -22 29 -35 34 -20 34 -20
34 -1 0 20 1 19 35 -2 21 -14 33 -29 30 -38 -7 -22 91 -75 99 -54 4 10 -6 20
-30 31 -25 13 -34 22 -31 35 3 11 -2 22 -15 29 -11 6 -17 17 -14 25 3 8 -4 18
-15 25 -12 6 -18 17 -15 25 3 7 -3 18 -14 24 -18 10 -29 40 -15 40 21 0 65
-34 65 -50 0 -20 17 -36 28 -26 3 4 -2 20 -12 37 -10 17 -15 33 -12 36 9 10
36 -18 36 -37 0 -10 7 -20 15 -24 8 -3 15 -15 15 -28 0 -17 -3 -19 -12 -10
-16 16 -28 15 -28 -3 0 -8 14 -21 30 -30 18 -9 30 -23 30 -35 0 -13 12 -26 35
-37 33 -16 43 -32 28 -46 -3 -4 -12 -2 -18 3 -9 7 -14 6 -18 -4 -4 -9 6 -22
29 -35 27 -16 34 -17 34 -6 0 17 9 19 29 6 8 -5 11 -16 8 -25 -4 -10 1 -20 13
-26 16 -9 20 -8 20 5 0 12 6 15 20 10 14 -4 20 -2 20 8 0 8 3 28 6 45 6 28 3
34 -30 53 -20 11 -36 27 -36 35 0 18 2 18 45 -3 26 -13 34 -21 29 -35 -3 -11
1 -20 10 -24 9 -3 16 -16 16 -29 0 -19 16 -35 36 -35 12 0 2 39 -12 44 -14 5
-15 15 -10 55 5 37 3 51 -9 61 -8 7 -15 20 -15 30 0 15 -18 30 -36 30 -13 0
-1 -31 16 -40 11 -6 17 -17 14 -25 -5 -12 -10 -12 -39 2 -31 15 -32 18 -28 57
7 54 16 63 47 42 31 -20 36 -20 36 -1 0 18 12 19 28 3 9 -9 12 -7 12 10 0 16
-11 27 -35 39 -26 12 -34 21 -30 34 4 11 -1 21 -12 28 -10 5 -18 17 -18 27 0
17 -61 61 -71 52 -10 -11 10 -40 38 -54 29 -15 30 -18 23 -62 -8 -55 -8 -54
-28 -46 -12 4 -14 14 -10 41 5 27 2 38 -10 45 -10 5 -17 18 -17 28 0 10 -7 23
-17 28 -12 7 -15 18 -10 45 5 30 2 37 -15 43 -13 4 -18 12 -15 25 3 12 -2 23
-14 29 -10 6 -19 17 -19 25 0 18 8 18 40 0 36 -21 40 -19 40 20 0 34 12 46 25
25 12 -20 21 -9 23 29 2 27 -2 40 -13 44 -8 4 -15 15 -15 26 0 17 -43 51 -65
51 -18 0 0 -33 27 -50 31 -19 44 -45 28 -55 -5 -3 -11 -1 -15 5 -10 16 -28 11
-21 -6 5 -13 1 -15 -19 -10 -18 5 -25 2 -25 -8 0 -10 -6 -13 -15 -10 -8 4 -15
16 -15 29 0 13 -7 25 -15 29 -8 3 -15 14 -15 25 0 11 -9 25 -20 31 -18 10 -20
8 -20 -30 0 -27 5 -43 15 -46 8 -4 15 -15 15 -25 0 -11 7 -22 15 -25 8 -4 15
-16 15 -29 0 -13 7 -25 15 -29 16 -6 19 -34 9 -85 -5 -25 -9 -29 -20 -20 -8 6
-14 28 -14 48 0 33 -4 39 -35 54 -24 11 -33 21 -29 32 4 10 13 13 25 10 40
-13 18 25 -31 51 -47 25 -50 30 -50 66 0 25 -5 41 -15 44 -8 4 -15 15 -15 25
0 22 11 24 28 7 9 -9 12 -7 12 10 0 13 -7 25 -15 28 -8 4 -15 16 -15 29 0 13
-7 25 -15 29 -8 3 -15 14 -15 25 0 25 -18 37 -33 22 -9 -9 -7 -16 9 -29 17
-13 21 -24 17 -50 -4 -26 -9 -31 -24 -27 -26 9 -25 -18 1 -36 13 -10 17 -18
11 -28 -7 -11 -13 -10 -35 4 -14 10 -26 25 -26 35 0 15 -18 30 -36 30 -10 0
-3 -30 9 -37 15 -9 30 -43 19 -43 -4 0 -26 10 -49 22 -40 21 -43 26 -43 62 0
31 3 37 12 28 17 -17 27 -15 25 7 -1 13 -18 27 -49 42 -33 15 -48 29 -48 41 0
15 5 18 19 13 32 -10 14 32 -20 47 -25 11 -29 18 -28 53 0 22 4 48 8 58 6 17
8 17 20 3 7 -9 11 -29 9 -46 -4 -23 0 -34 14 -41 16 -9 18 -6 18 26 0 19 3 35
8 35 18 -1 34 -19 29 -33 -4 -10 1 -18 14 -22 10 -4 19 -15 19 -26 0 -15 -5
-19 -19 -14 -15 5 -19 0 -23 -29 -3 -25 1 -37 14 -45 15 -9 18 -8 18 8 0 14 5
18 20 14 14 -4 20 0 20 11 0 15 3 15 30 1 36 -19 40 -19 40 0 0 19 9 19 34 0
11 -8 23 -15 28 -15 14 0 8 38 -7 44 -8 3 -15 15 -15 26 0 18 3 19 20 10 11
-6 20 -19 20 -30 0 -12 12 -26 30 -35 18 -9 30 -23 30 -35 0 -11 12 -26 30
-35 36 -19 40 -19 40 1 0 10 6 13 19 9 15 -4 20 1 25 26 10 50 7 76 -9 89 -8
7 -15 21 -15 30 0 14 -47 50 -65 50 -2 0 -6 -16 -10 -36 -4 -26 -2 -39 7 -45
21 -14 28 -11 28 11 0 18 2 19 20 8 11 -7 20 -21 20 -31 0 -14 -5 -16 -25 -11
-31 8 -35 -20 -5 -36 21 -11 28 -40 10 -40 -6 0 -24 7 -41 16 -22 11 -28 20
-24 34 4 13 0 20 -15 25 -19 6 -21 12 -15 47 5 29 3 43 -6 49 -22 14 -29 11
-29 -11 0 -17 -3 -19 -20 -10 -12 6 -17 16 -13 26 3 9 0 20 -8 25 -22 14 -29
11 -29 -12 0 -18 -2 -19 -15 -9 -22 19 -20 49 4 43 17 -4 19 2 23 52 l3 57
-52 24 c-38 16 -53 29 -53 42 0 11 -7 25 -15 32 -13 11 -15 8 -15 -13z m-370
-137 c0 -5 -4 -10 -10 -10 -5 0 -10 5 -10 10 0 6 5 10 10 10 6 0 10 -4 10 -10z
m304 -46 c9 -3 16 -15 16 -26 0 -14 -5 -18 -16 -14 -9 3 -18 6 -20 6 -2 0 -4
9 -4 20 0 22 1 23 24 14z m-244 -64 c8 -5 11 -10 5 -10 -5 0 -17 5 -25 10 -8
5 -10 10 -5 10 6 0 17 -5 25 -10z m450 -27 c-1 -5 -7 -19 -15 -33 l-14 -25 -1
33 c0 22 5 32 15 32 8 0 15 -3 15 -7z m-280 -58 c10 -13 9 -15 -9 -15 -12 0
-21 6 -21 15 0 8 4 15 9 15 5 0 14 -7 21 -15z m235 -296 c3 -10 1 -28 -5 -40
-11 -20 -12 -20 -29 13 -10 20 -14 38 -8 45 11 16 35 6 42 -18z m-61 -25 c16
-6 23 -44 8 -44 -12 0 -32 23 -32 37 0 15 2 15 24 7z m192 -81 c-3 -8 -6 -17
-6 -19 0 -3 -4 -2 -10 1 -17 11 -12 45 6 38 8 -3 13 -12 10 -20z m-114 1 c28
-15 30 -19 25 -60 -2 -25 -7 -47 -10 -50 -13 -14 -27 10 -27 46 0 24 -5 40
-15 44 -8 3 -15 12 -15 21 0 19 4 19 42 -1z m295 0 c-3 -3 -12 -4 -19 -1 -8 3
-5 6 6 6 11 1 17 -2 13 -5z m-139 -82 c7 -5 10 -16 6 -25 -4 -11 0 -19 10 -23
9 -3 16 -16 16 -29 0 -13 7 -25 18 -27 15 -4 17 -13 14 -42 -2 -20 -8 -36 -12
-36 -14 0 -30 27 -25 42 4 10 -1 17 -14 21 -17 4 -19 11 -15 39 4 24 1 38 -10
47 -29 24 -18 52 12 33z m116 -100 c3 -30 0 -42 -9 -42 -17 0 -24 38 -11 68
12 29 15 24 20 -26z m44 -64 c5 -7 7 -27 5 -45 l-5 -31 -34 20 c-22 13 -34 28
-34 41 0 16 3 18 12 9 16 -16 28 -15 28 3 0 18 14 20 28 3z m-131 -29 c6 -6
19 -12 29 -14 11 -2 20 -4 22 -4 2 -1 -4 -11 -12 -23 -9 -12 -16 -32 -17 -43
0 -14 -2 -16 -6 -5 -9 23 -45 60 -60 60 -18 0 -16 10 5 26 21 16 25 17 39 3z
m-143 -49 c-6 -6 -10 -2 -11 12 -2 16 1 18 10 9 7 -7 8 -14 1 -21z m297 -96
c-1 -27 -4 -50 -6 -52 -2 -2 -26 11 -55 29 -34 21 -49 36 -46 46 3 8 6 30 6
50 l0 35 53 -30 52 -30 -4 -48z m104 68 c-3 -3 -11 0 -18 7 -9 10 -8 11 6 5
10 -3 15 -9 12 -12z m-210 -92 c3 -5 2 -10 -4 -10 -5 0 -13 5 -16 10 -3 6 -2
10 4 10 5 0 13 -4 16 -10z m58 -57 c-8 -20 -27 -10 -31 16 -3 20 -1 21 16 10
11 -7 18 -19 15 -26z m67 -69 c0 -11 -6 -14 -16 -10 -9 3 -18 6 -20 6 -2 0 -4
9 -4 20 0 18 3 19 20 10 11 -6 20 -18 20 -26z m33 -24 c-3 -11 -12 -20 -19
-20 -12 0 -12 4 -2 20 7 11 16 20 19 20 4 0 5 -9 2 -20z"/>
<path d="M1252 718 c2 -12 11 -24 21 -26 24 -5 22 25 -4 38 -18 10 -20 9 -17
-12z"/>
<path d="M1480 1815 c14 -8 30 -14 35 -14 6 0 -1 6 -15 14 -14 8 -29 14 -35
14 -5 0 1 -6 15 -14z"/>
<path d="M2289 1805 c-8 -16 -29 -43 -46 -58 -18 -16 -33 -34 -33 -40 0 -6 -6
-18 -14 -26 -8 -9 -17 -31 -21 -50 l-7 -34 28 22 c31 24 47 12 21 -17 -20 -23
-34 -88 -16 -77 9 6 11 4 6 -8 -3 -8 -9 -31 -12 -51 -4 -19 -13 -41 -21 -47
-12 -10 -13 -9 -8 6 6 15 4 16 -14 6 -20 -11 -21 -10 -15 20 4 23 3 30 -5 25
-17 -10 -15 7 4 30 14 17 15 17 10 1 -4 -12 -2 -17 6 -15 13 5 30 69 21 78 -4
5 -23 -16 -51 -56 -11 -17 -12 -14 -6 16 3 19 11 40 18 45 13 11 29 45 20 45
-14 0 -74 -54 -74 -67 0 -8 5 -11 10 -8 15 9 12 -16 -4 -34 -8 -9 -19 -33 -24
-54 -9 -33 -9 -37 4 -26 8 6 14 19 14 29 0 10 7 20 15 24 8 3 15 3 15 -1 0
-14 -47 -81 -79 -113 -20 -19 -42 -44 -49 -55 -10 -16 -12 -16 -8 -2 8 24 3
22 -63 -29 -52 -40 -59 -50 -65 -90 -3 -24 -8 -55 -12 -69 -8 -34 18 -25 37
13 8 15 26 39 41 54 16 14 28 32 28 39 0 7 -10 3 -25 -11 -21 -20 -25 -21 -25
-6 0 16 56 76 72 76 4 0 4 -7 1 -17 -4 -11 -3 -14 5 -9 8 4 12 0 12 -11 1 -17
2 -17 15 1 20 26 19 37 -1 29 -13 -5 -15 -3 -6 13 6 11 20 28 32 39 23 20 23
20 17 0 -3 -11 -9 -37 -13 -58 -3 -20 -16 -45 -28 -55 -28 -22 -42 -54 -19
-45 12 5 13 2 5 -13 -10 -19 -52 -61 -52 -53 0 2 4 19 9 37 5 17 6 32 2 32
-12 0 -71 -65 -71 -78 0 -6 -9 -16 -20 -22 -20 -11 -45 -48 -37 -56 2 -2 25
14 50 37 49 43 56 40 34 -14 -15 -35 -57 -77 -44 -44 9 24 -5 21 -31 -6 -26
-28 -31 -57 -7 -37 13 11 14 10 9 -6 -4 -10 -13 -26 -20 -34 -13 -15 -68 -269
-60 -277 8 -8 23 30 31 74 3 23 13 47 21 54 8 6 14 17 14 23 0 7 12 23 27 37
20 18 25 20 20 7 -4 -10 -2 -18 3 -18 9 0 23 44 36 114 5 30 4 37 -6 31 -16
-10 -4 31 19 64 9 13 21 32 27 43 7 11 17 25 24 31 10 9 12 8 7 -6 -6 -16 -5
-16 18 -1 14 9 25 22 25 28 0 7 11 23 25 36 25 24 36 13 12 -12 -18 -18 -28
-48 -16 -48 5 0 12 7 15 15 4 8 10 15 15 15 4 0 5 -7 2 -17 -4 -11 -3 -14 5
-9 17 10 15 -10 -2 -26 -7 -8 -17 -30 -21 -49 -5 -23 -4 -31 3 -24 6 6 12 19
14 30 2 11 10 20 18 20 11 0 15 -12 16 -43 0 -24 -3 -45 -8 -48 -4 -3 -8 0 -8
6 0 6 -4 8 -10 5 -5 -3 -10 -13 -10 -21 0 -8 5 -12 10 -9 24 15 7 -17 -25 -46
-25 -23 -34 -38 -29 -51 3 -11 -1 -27 -9 -36 -9 -9 -18 -30 -22 -47 -6 -29 -6
-29 9 -11 9 11 16 26 16 34 0 7 6 12 13 9 6 -2 11 -12 10 -22 -1 -15 1 -15 12
-4 15 17 37 101 24 93 -20 -12 -7 20 17 42 16 16 23 31 19 42 -3 12 3 26 17
38 19 17 21 17 15 2 -8 -22 12 -35 24 -17 12 19 11 31 -2 23 -8 -4 -9 1 -4 17
5 13 13 47 20 76 10 43 10 53 -1 57 -16 6 -19 46 -4 46 6 0 10 -5 10 -11 0 -5
4 -7 10 -4 6 3 7 -1 4 -9 -4 -9 0 -18 9 -22 9 -3 14 -11 12 -17 -12 -42 -15
-68 -5 -62 16 10 12 -7 -10 -40 -11 -16 -20 -37 -20 -46 0 -9 -9 -24 -20 -34
-12 -11 -20 -13 -20 -6 0 26 -18 -1 -25 -36 -3 -21 -9 -49 -12 -63 l-6 -25 22
19 c22 20 22 20 15 0 -4 -10 -10 -21 -14 -24 -14 -12 -51 -80 -42 -80 12 0 42
34 42 47 0 5 9 18 20 28 20 18 21 18 14 -1 -4 -12 7 -5 31 19 20 21 34 41 31
45 -4 3 -13 -3 -21 -14 -8 -10 -15 -14 -15 -8 0 5 -7 19 -16 30 -8 10 -12 12
-8 4 5 -11 4 -12 -5 -4 -15 14 -6 36 20 52 12 8 18 9 14 3 -3 -6 -1 -11 5 -11
6 0 8 -6 4 -12 -4 -7 3 -4 16 7 23 19 23 19 16 1 -7 -19 -6 -19 14 -1 11 10
20 13 20 8 0 -6 -7 -16 -15 -23 -8 -7 -15 -20 -15 -29 1 -12 5 -11 20 8 11 13
20 29 20 37 0 8 5 14 11 14 5 0 7 -4 4 -10 -3 -5 -4 -10 0 -10 3 0 10 11 15
25 5 14 15 24 21 23 7 -2 13 15 14 45 2 39 0 45 -11 36 -22 -18 -16 6 6 26 18
16 20 16 26 1 8 -21 26 -9 19 13 -2 9 -1 31 4 49 7 23 7 30 -1 26 -8 -5 -9 -1
-5 12 7 18 7 18 -8 0 -10 -13 -11 -22 -5 -26 7 -4 4 -16 -9 -31 l-20 -24 4 68
c4 52 1 69 -10 73 -11 5 -12 11 -2 31 9 21 8 27 -6 38 -17 12 -16 15 8 41 18
19 25 23 21 11 -4 -12 -2 -16 6 -11 8 5 9 1 4 -11 -6 -18 -6 -18 15 1 22 18
22 18 15 0 -5 -15 -4 -17 8 -7 25 21 30 -20 5 -43 -12 -12 -19 -15 -15 -8 4 6
2 12 -4 12 -6 0 -8 5 -4 11 4 8 0 8 -15 0 -11 -7 -21 -19 -21 -28 0 -13 2 -14
17 -2 15 13 16 11 9 -16 -4 -16 -10 -39 -13 -50 -6 -20 -5 -20 16 -1 11 11 21
23 21 28 0 5 11 27 25 49 16 24 24 48 20 59 -3 10 2 36 11 57 36 79 36 77 19
63 -8 -7 -15 -18 -15 -26 0 -7 -4 -16 -10 -19 -6 -4 -7 1 -3 11 4 12 3 15 -5
10 -22 -13 -12 10 13 34 14 13 25 28 25 34 0 6 9 29 21 51 19 35 20 40 5 50
-9 7 -13 14 -10 17 3 3 7 30 9 59 4 49 3 52 -10 35 -17 -22 -20 -40 -6 -31 12
7 -5 -55 -19 -69 -5 -5 -10 -16 -10 -24 0 -11 3 -12 14 -2 12 9 14 8 12 -12
-4 -33 -21 -72 -40 -87 -21 -18 -21 -3 0 20 14 16 15 23 4 49 -8 20 -9 34 -3
43 6 6 10 19 10 27 0 8 4 27 8 43 10 37 -3 35 -16 -3 -6 -16 -15 -30 -20 -30
-4 0 -6 8 -2 18 6 15 4 15 -15 -2 -25 -22 -32 -57 -8 -37 11 10 16 8 20 -7 4
-11 4 -26 0 -35 -3 -8 -1 -24 5 -35 8 -15 7 -27 -4 -49 -8 -15 -15 -35 -15
-44 0 -9 -7 -22 -15 -29 -8 -7 -15 -17 -15 -22 0 -6 7 -5 15 2 26 22 27 4 2
-26 -24 -28 -24 -28 -31 -6 -5 14 -1 35 9 55 25 47 36 89 23 81 -7 -5 -9 -1
-5 9 9 25 -9 21 -27 -5 -22 -31 -20 -45 4 -23 27 24 25 9 -5 -40 -14 -22 -30
-51 -36 -65 l-11 -25 -12 24 c-14 26 -19 22 -30 -22 -4 -17 -3 -26 3 -23 11 7
23 -22 14 -36 -4 -7 -1 -8 7 -3 9 6 10 0 5 -26 -4 -19 -12 -45 -18 -59 -6 -14
-11 -37 -12 -52 -2 -15 -6 -35 -9 -45 -7 -17 -8 -17 -17 0 -6 9 -7 27 -4 38 5
15 4 19 -4 15 -16 -10 -13 7 5 30 15 19 16 19 9 -1 -4 -13 -3 -17 4 -10 5 6
13 24 17 40 7 27 6 29 -10 16 -26 -21 -29 -7 -5 23 27 35 20 42 -14 15 -30
-23 -31 -22 -18 15 7 17 7 26 -2 29 -8 3 -6 10 6 25 20 22 15 68 -5 56 -8 -5
-9 -1 -5 10 4 10 3 15 -3 11 -23 -14 -8 26 15 41 14 9 25 22 25 28 0 7 11 23
25 36 24 22 36 58 16 45 -6 -3 -6 7 -1 27 13 42 3 50 -12 10 -13 -33 -32 -46
-22 -14 5 14 3 14 -10 -2 -9 -11 -16 -26 -16 -33 0 -7 -4 -13 -10 -13 -15 0
-12 26 4 39 13 11 36 83 36 112 0 7 -13 0 -30 -16 -22 -21 -30 -25 -30 -13 0
9 15 29 33 45 39 33 81 98 74 116 -2 6 -10 -1 -18 -18z m-32 -290 c-4 -8 -11
-15 -17 -15 -7 0 -7 6 0 21 13 23 26 19 17 -6z m-136 -110 c5 3 6 -2 2 -11 -4
-12 -3 -15 5 -10 17 10 15 -14 -3 -34 -19 -21 -33 -86 -17 -76 7 4 12 15 12
25 0 10 8 25 17 32 15 12 16 12 10 -4 -5 -12 -3 -16 5 -11 8 5 9 2 4 -11 -5
-15 -4 -16 9 -5 18 15 20 35 3 24 -8 -5 -9 -2 -5 10 4 10 3 15 -3 11 -21 -13
-9 23 16 46 l26 24 -7 -24 c-5 -16 -4 -21 4 -16 16 9 3 -45 -15 -66 -17 -19
-19 -43 -3 -33 17 10 -6 -30 -27 -47 -16 -12 -17 -12 -11 4 3 9 2 17 -2 17
-14 0 -23 -33 -11 -40 12 -8 -34 -70 -52 -70 -14 0 -1 50 19 72 26 29 9 39
-20 12 -36 -33 -47 -23 -19 16 28 38 29 59 1 34 l-21 -19 7 40 c4 22 13 51 21
65 7 14 18 36 25 50 10 21 13 22 16 7 3 -9 9 -15 14 -12z m75 -154 c-4 -5 -1
-11 6 -13 13 -5 4 -38 -11 -38 -6 0 -7 7 -4 17 5 11 3 14 -6 8 -10 -6 -11 -3
-2 14 7 11 14 21 17 21 3 0 3 -4 0 -9z m124 -72 c-10 -34 -27 -59 -42 -59 -8
0 12 44 36 78 14 19 15 14 6 -19z m-315 -37 c-10 -10 -16 -12 -13 -7 3 6 8 19
13 30 5 14 9 16 12 7 3 -8 -3 -21 -12 -30z m151 -66 c-7 -28 -18 -52 -25 -54
-8 -3 -8 3 -1 23 13 33 13 38 0 30 -19 -12 -10 14 12 35 12 11 23 19 24 17 1
-1 -3 -24 -10 -51z m155 7 c-6 -21 -25 -52 -42 -68 -23 -22 -30 -25 -26 -12 4
11 10 31 13 45 6 26 53 86 61 78 3 -2 0 -22 -6 -43z m-201 6 c-7 -11 -14 -18
-17 -15 -8 8 5 36 17 36 7 0 7 -6 0 -21z m193 -109 c-6 -24 -23 -37 -23 -18 0
12 18 38 26 38 1 0 0 -9 -3 -20z m-78 0 c3 -5 1 -19 -6 -31 -10 -19 -13 -20
-20 -6 -16 27 10 64 26 37z m45 -11 c-7 -11 -14 -18 -17 -15 -8 8 5 36 17 36
7 0 7 -6 0 -21z m-407 -16 c-4 -11 -3 -14 5 -9 8 5 10 -2 6 -26 -6 -33 -46
-76 -52 -57 -2 5 -8 7 -13 3 -12 -7 -11 3 2 28 8 15 13 17 19 8 6 -9 11 -7 19
8 10 19 9 21 -5 15 -10 -3 -15 -2 -12 3 3 5 8 17 11 27 4 9 11 17 16 17 6 0 7
-7 4 -17z m187 -124 c-7 -11 -14 -18 -17 -15 -8 8 5 36 17 36 7 0 7 -6 0 -21z
m-230 4 c0 -5 -7 -17 -15 -27 -15 -20 -15 -20 -15 0 0 12 3 24 7 27 9 9 23 9
23 0z"/>
<path d="M2087 1383 c-11 -20 -19 -75 -9 -69 12 7 27 65 19 72 -3 3 -7 2 -10
-3z"/>
<path d="M2276 1064 c-10 -25 1 -29 14 -5 6 12 7 21 1 21 -5 0 -12 -7 -15 -16z"/>
<path d="M1120 1796 c0 -16 7 -26 21 -29 16 -4 19 -11 14 -27 -5 -17 -2 -23
15 -27 16 -4 21 -12 17 -29 -3 -17 1 -25 14 -29 12 -4 19 -16 19 -30 0 -14 7
-26 19 -30 13 -4 17 -12 14 -26 -4 -12 0 -25 8 -30 22 -14 29 -11 29 11 0 18
3 19 20 10 17 -9 20 -8 20 13 0 16 -7 26 -20 30 -14 4 -18 10 -13 23 4 11 0
22 -12 30 -19 14 -31 54 -17 54 14 0 32 -23 32 -42 0 -9 9 -22 20 -28 17 -9
20 -8 20 14 0 13 -7 26 -15 30 -8 3 -15 14 -15 26 0 14 -15 27 -50 45 -59 30
-60 30 -60 5 0 -11 -4 -20 -8 -20 -15 0 -32 24 -32 46 0 12 -7 25 -16 28 -23
9 -24 8 -24 -18z m119 -65 c9 -6 10 -10 2 -16 -16 -9 -44 2 -36 15 8 12 16 12
34 1z m21 -81 c0 -11 -4 -20 -8 -20 -14 0 -32 24 -32 42 0 16 3 17 20 8 11 -6
20 -20 20 -30z"/>
<path d="M1537 1789 c7 -7 15 -10 18 -7 3 3 -2 9 -12 12 -14 6 -15 5 -6 -5z"/>
<path d="M1570 1775 c0 -9 71 -37 78 -31 3 3 3 6 0 6 -3 0 -22 7 -42 15 -20 8
-36 13 -36 10z"/>
<path d="M2201 1748 c-5 -13 -7 -25 -5 -27 6 -7 22 9 27 29 7 27 -12 25 -22
-2z"/>
<path d="M2323 1743 c-13 -8 -23 -22 -23 -31 0 -8 -7 -23 -16 -33 -9 -10 -14
-24 -11 -31 3 -9 7 -7 13 7 4 11 20 35 36 53 15 18 28 37 28 42 0 12 0 12 -27
-7z"/>
<path d="M1660 1734 c0 -7 112 -56 116 -51 2 2 -23 15 -56 30 -33 14 -60 23
-60 21z"/>
<path d="M2163 1728 c-14 -18 -24 -78 -13 -78 10 0 34 79 27 86 -2 3 -9 -1
-14 -8z"/>
<path d="M2515 1728 c-4 -9 -2 -25 3 -35 10 -17 11 -17 17 -1 4 9 2 25 -3 35
-10 17 -11 17 -17 1z"/>
<path d="M2400 1700 c-6 -12 -9 -24 -7 -27 3 -2 11 5 17 17 6 12 9 24 7 27 -3
2 -11 -5 -17 -17z"/>
<path d="M1070 1696 c0 -13 57 -56 74 -56 3 0 6 9 6 20 0 11 -12 26 -30 35
-36 19 -50 19 -50 1z"/>
<path d="M2341 1691 c-11 -11 -21 -27 -21 -35 0 -8 -3 -22 -7 -32 -5 -13 -3
-15 7 -9 10 6 12 4 7 -9 -4 -9 -3 -14 2 -11 5 3 12 -4 16 -15 3 -11 10 -20 15
-20 5 0 6 -7 3 -17 -4 -10 -2 -14 4 -10 6 4 13 16 16 27 3 11 1 18 -3 15 -15
-10 -22 35 -10 70 7 22 8 40 2 51 -8 15 -11 15 -31 -5z m15 -37 c-3 -9 -6 -18
-6 -20 0 -2 -4 -4 -9 -4 -5 0 -7 9 -4 20 3 11 10 20 15 20 6 0 7 -7 4 -16z"/>
<path d="M617 1686 c-4 -10 2 -20 14 -27 11 -6 18 -16 16 -24 -6 -13 10 -35
25 -35 14 0 9 38 -6 43 -8 3 -16 16 -18 28 -4 27 -23 36 -31 15z"/>
<path d="M1030 1670 c0 -11 2 -20 4 -20 2 0 11 -3 20 -6 11 -4 16 0 16 14 0
11 -7 23 -16 26 -23 9 -24 8 -24 -14z"/>
<path d="M1366 1554 c-10 -75 -16 -137 -14 -139 14 -13 251 -125 255 -121 5 5
53 270 49 272 -14 9 -260 124 -265 124 -4 0 -15 -61 -25 -136z m153 34 l92
-43 -6 -40 c-4 -22 -11 -68 -17 -102 l-10 -62 -91 46 c-51 25 -93 46 -94 47
-6 4 22 196 28 196 4 0 48 -19 98 -42z"/>
<path d="M1449 1567 c0 -7 -4 -34 -8 -60 l-8 -48 57 -29 56 -28 10 60 10 60
-58 28 c-35 17 -58 24 -59 17z m79 -85 c-2 -14 -8 -27 -15 -29 -19 -7 -52 33
-46 55 4 18 9 19 34 10 24 -8 30 -15 27 -36z"/>
<path d="M1797 1669 c7 -7 15 -10 18 -7 3 3 -2 9 -12 12 -14 6 -15 5 -6 -5z"/>
<path d="M2015 1628 c-38 -27 -77 -56 -86 -66 -10 -10 -25 -65 -38 -134 -12
-65 -24 -125 -28 -135 -5 -13 119 70 160 107 7 6 69 273 64 276 -1 0 -33 -21
-72 -48z m24 -90 c-10 -46 -19 -88 -19 -95 0 -11 -111 -103 -124 -103 -3 0 -2
10 3 23 4 12 14 56 21 98 12 73 13 76 55 102 24 15 49 34 55 42 25 30 27 13 9
-67z"/>
<path d="M1983 1537 c-22 -15 -33 -32 -37 -57 -3 -19 -9 -46 -12 -59 -6 -21
-5 -22 12 -12 43 25 54 41 64 91 6 29 9 54 8 55 -2 2 -17 -7 -35 -18z"/>
<path d="M2113 1658 c-6 -7 -13 -22 -16 -33 -6 -17 -4 -17 13 4 11 13 20 27
20 32 0 12 -6 11 -17 -3z"/>
<path d="M450 1551 c0 -10 7 -21 15 -25 8 -3 15 -15 15 -28 0 -17 -3 -19 -12
-10 -7 7 -15 12 -19 12 -3 0 -7 -62 -8 -139 -2 -117 1 -139 14 -144 12 -5 15
3 15 43 0 40 3 48 15 44 10 -4 15 0 15 10 0 9 -7 19 -15 22 -8 4 -15 15 -15
25 0 12 5 16 15 13 10 -4 15 0 15 10 0 9 -7 19 -15 22 -8 4 -15 15 -15 25 0
16 3 18 19 9 11 -5 21 -20 23 -32 2 -12 9 -23 16 -26 17 -5 15 23 -3 38 -8 7
-15 21 -15 32 0 17 3 18 15 8 8 -7 15 -20 15 -30 0 -10 7 -20 15 -24 9 -3 15
-19 15 -41 0 -38 -5 -42 -34 -20 -25 19 -36 19 -36 0 0 -8 13 -21 29 -30 16
-8 31 -25 33 -37 2 -12 8 -23 14 -25 7 -3 14 20 19 63 6 56 4 69 -9 76 -10 6
-16 22 -16 43 0 28 -6 37 -30 50 -18 9 -30 23 -30 35 0 12 -12 26 -30 35 -28
15 -30 14 -30 -4z"/>
<path d="M2312 1547 c-25 -27 -30 -46 -7 -27 28 23 24 5 -10 -50 -37 -59 -44
-80 -20 -60 8 7 15 18 15 26 0 7 5 16 12 20 8 5 9 2 5 -10 -5 -11 -3 -15 5
-10 8 5 9 1 4 -12 -7 -18 -6 -18 10 -2 15 15 16 21 5 44 -7 15 -8 31 -3 38 16
20 23 48 10 40 -8 -5 -9 -2 -5 9 9 23 5 21 -21 -6z"/>
<path d="M1277 1470 c-3 -11 1 -21 10 -24 20 -8 20 -8 27 9 3 8 -3 19 -13 25
-15 7 -20 6 -24 -10z"/>
<path d="M900 1421 c0 -10 7 -21 15 -25 8 -3 15 -14 15 -25 0 -16 18 -31 36
-31 10 0 2 29 -11 40 -8 7 -15 20 -15 30 0 10 -7 21 -16 24 -23 9 -24 8 -24
-13z"/>
<path d="M1801 1404 c0 -11 3 -14 6 -6 3 7 2 16 -1 19 -3 4 -6 -2 -5 -13z"/>
<path d="M1270 1394 c0 -11 -6 -14 -20 -9 -15 5 -20 2 -20 -13 0 -11 7 -23 16
-26 10 -4 14 -14 11 -25 -2 -10 3 -22 13 -29 15 -9 19 -7 23 9 3 12 -2 23 -14
29 -20 11 -26 40 -9 40 6 0 24 -7 41 -16 22 -11 28 -20 24 -34 -4 -13 0 -20
14 -25 18 -5 20 -12 15 -49 -5 -34 -3 -44 10 -49 9 -4 16 -16 16 -27 0 -11 7
-23 15 -26 8 -4 15 -14 15 -23 0 -18 18 -41 32 -41 14 0 8 38 -7 44 -8 3 -15
14 -15 25 0 11 -8 26 -19 33 -12 9 -16 19 -11 32 4 14 9 16 14 8 11 -18 26
-14 26 7 0 10 -7 22 -16 25 -11 4 -15 17 -13 47 3 30 -1 43 -14 50 -14 8 -17
6 -17 -11 0 -11 -4 -20 -8 -20 -14 0 -32 23 -32 42 0 10 -13 24 -30 33 -36 19
-40 19 -40 -1z"/>
<path d="M660 1364 c0 -14 -3 -14 -15 -4 -12 10 -15 9 -15 -8 0 -11 12 -27 26
-37 30 -19 29 -20 37 22 5 23 2 33 -9 37 -22 9 -24 8 -24 -10z"/>
<path d="M1190 1352 c0 -11 7 -23 16 -26 11 -4 15 0 12 16 -4 28 -28 36 -28
10z"/>
<path d="M723 1304 c-1 -26 -4 -49 -7 -52 -3 -2 -26 8 -51 22 -41 24 -45 25
-45 8 0 -11 13 -25 34 -35 32 -15 34 -19 29 -51 -5 -31 -2 -36 26 -50 28 -15
31 -21 31 -66 0 -28 -2 -50 -4 -50 -19 0 -34 14 -29 27 5 13 -11 32 -28 33 -3
0 -6 -14 -5 -31 1 -37 50 -75 65 -50 5 7 14 10 20 7 6 -4 11 -1 11 8 0 10 6
13 15 10 11 -5 15 1 15 25 0 33 8 39 28 19 9 -9 12 -7 12 10 0 16 -12 28 -45
44 -42 21 -45 24 -45 62 0 31 3 37 12 28 17 -17 28 -15 28 7 0 11 -9 22 -20
26 -15 5 -18 12 -13 36 5 26 -9 59 -26 59 -3 0 -7 -21 -8 -46z m62 -203 c3 -5
1 -12 -5 -16 -5 -3 -10 1 -10 9 0 18 6 21 15 7z"/>
<path d="M1150 1337 c0 -8 7 -20 15 -27 8 -7 15 -21 15 -31 0 -24 20 -35 31
-18 6 9 2 19 -10 29 -11 8 -21 24 -23 34 -4 23 -28 34 -28 13z"/>
<path d="M1110 1316 c0 -29 26 -42 33 -17 2 10 -3 23 -14 30 -17 10 -19 8 -19
-13z"/>
<path d="M1450 1300 c0 -11 7 -23 15 -26 10 -4 15 -20 15 -45 0 -37 -2 -39
-25 -33 -39 10 -32 -23 10 -43 24 -12 35 -23 35 -39 0 -18 17 -34 36 -34 12 0
1 39 -12 44 -14 5 -16 16 -11 58 7 59 8 61 31 52 11 -4 16 -14 13 -26 -7 -25
30 -46 39 -23 4 10 -1 22 -15 31 -14 10 -20 22 -16 34 8 24 -24 36 -40 14 -15
-22 -35 -10 -35 21 0 12 -7 26 -16 29 -23 9 -24 8 -24 -14z"/>
<path d="M502 1274 c1 -9 9 -19 16 -22 9 -3 13 2 10 14 -1 9 -9 19 -16 22 -9
3 -13 -2 -10 -14z"/>
<path d="M530 1225 c0 -15 -3 -15 -15 -5 -18 15 -30 7 -22 -14 5 -13 76 -56
92 -56 11 0 4 29 -9 37 -8 4 -15 17 -17 27 -5 25 -29 33 -29 11z"/>
<path d="M1210 1221 c0 -26 27 -35 33 -11 3 11 -1 21 -10 24 -22 9 -23 8 -23
-13z"/>
<path d="M2403 1223 c-3 -10 -8 -22 -10 -28 -3 -5 3 -1 11 9 16 20 21 36 11
36 -3 0 -8 -8 -12 -17z"/>
<path d="M620 1211 c0 -10 7 -21 15 -25 8 -3 15 -13 15 -22 0 -10 -5 -14 -14
-11 -23 9 -28 -21 -6 -33 16 -9 20 -8 20 6 0 10 5 14 15 10 9 -3 15 0 15 8 0
7 -7 19 -15 26 -8 7 -15 20 -15 30 0 10 -7 20 -15 24 -10 3 -15 -1 -15 -13z"/>
<path d="M430 1100 c0 -54 -2 -104 -5 -112 -3 -8 31 -34 97 -71 55 -32 103
-56 105 -53 2 2 5 52 6 112 l2 108 -102 57 -103 58 0 -99z m180 -86 c0 -28 -3
-65 -6 -81 l-6 -30 -71 43 -72 44 3 79 3 79 75 -42 74 -41 0 -51z"/>
<path d="M492 1049 c3 -47 6 -51 46 -75 l42 -25 0 50 c0 48 -1 50 -46 75 l-45
25 3 -50z m52 -25 c9 -22 8 -24 -9 -18 -8 4 -15 12 -15 20 0 19 16 18 24 -2z"/>
<path d="M1380 1080 c0 -37 -2 -40 -19 -31 -14 8 -20 7 -25 -4 -3 -9 8 -22 33
-36 28 -15 37 -26 34 -39 -5 -17 -7 -17 -39 2 -19 11 -34 28 -34 38 0 24 -19
35 -33 20 -9 -9 -7 -15 8 -26 11 -8 19 -23 17 -32 -2 -12 9 -24 33 -35 23 -11
35 -24 35 -37 0 -13 12 -26 36 -37 25 -13 34 -22 31 -35 -3 -11 2 -22 14 -28
10 -6 19 -19 19 -30 0 -24 20 -37 31 -19 6 9 2 19 -11 29 -17 13 -19 22 -14
63 6 45 9 48 30 43 26 -7 33 11 12 32 -16 16 -28 15 -28 -3 0 -17 -9 -19 -29
-6 -8 5 -11 16 -8 25 4 10 -1 20 -13 26 -11 6 -20 20 -20 31 0 21 0 20 36 -1
19 -12 37 -21 38 -19 2 2 7 18 10 36 6 26 4 34 -13 43 -18 9 -21 8 -21 -10 l0
-20 -41 20 c-29 15 -39 26 -35 38 4 11 -2 22 -14 30 -19 11 -20 10 -20 -28z
m40 -55 c14 -16 10 -18 -14 -9 -9 3 -16 10 -16 15 0 14 16 11 30 -6z m20 -92
c0 -9 7 -25 17 -35 26 -29 7 -33 -21 -5 -29 29 -34 57 -11 57 8 0 15 -8 15
-17z"/>
<path d="M1741 1074 c0 -11 3 -14 6 -6 3 7 2 16 -1 19 -3 4 -6 -2 -5 -13z"/>
<path d="M2006 1082 c-3 -5 -10 -31 -16 -58 -8 -36 -20 -56 -46 -77 -19 -16
-34 -36 -34 -44 0 -14 3 -13 21 3 20 18 20 18 14 -11 -4 -17 -14 -37 -22 -45
-12 -13 -13 -13 -8 5 7 20 6 20 -9 1 -18 -22 -21 -40 -6 -31 16 10 12 -11 -5
-25 -15 -13 -22 -45 -7 -36 4 2 18 24 30 49 12 24 31 52 43 63 21 19 22 19 16
-1 -13 -45 -19 -75 -14 -75 7 0 57 105 57 118 0 5 7 15 15 22 8 7 15 19 15 28
0 12 -7 9 -28 -11 -15 -15 -31 -27 -35 -27 -9 0 13 62 29 81 17 19 18 33 3 23
-8 -4 -9 3 -4 25 6 30 2 41 -9 23z"/>
<path d="M1530 1056 c0 -8 9 -20 21 -26 18 -10 20 -9 17 12 -3 26 -38 39 -38
14z"/>
<path d="M1941 1051 c-12 -21 -11 -23 3 -18 14 5 15 3 6 -13 -5 -10 -15 -22
-20 -25 -6 -3 -10 -14 -10 -23 0 -13 5 -12 24 8 23 25 46 87 27 76 -5 -3 -11
0 -13 6 -3 8 -10 4 -17 -11z"/>
<path d="M872 1040 c1 -13 9 -25 16 -28 17 -5 15 23 -4 39 -14 11 -15 10 -12
-11z"/>
<path d="M800 1005 c0 -9 7 -18 15 -21 8 -4 15 -16 15 -27 0 -16 -3 -18 -12
-9 -20 20 -28 14 -28 -22 0 -21 6 -36 15 -40 9 -3 15 0 15 10 0 12 4 12 20 4
11 -6 17 -17 14 -24 -3 -8 4 -19 16 -26 11 -6 18 -15 14 -21 -6 -11 13 -39 28
-39 14 0 5 103 -9 108 -7 2 -13 -4 -13 -13 0 -14 -3 -15 -15 -5 -8 7 -15 19
-15 26 0 8 6 11 15 8 10 -4 15 0 15 11 0 15 3 15 35 -4 33 -19 35 -19 35 -2 0
10 -6 21 -14 24 -8 3 -16 16 -18 28 -4 26 -28 38 -28 14 0 -14 -6 -13 -44 9
-52 30 -56 31 -56 11z"/>
<path d="M665 917 c-5 -62 -4 -82 7 -88 10 -6 15 7 23 58 9 58 12 64 24 50 9
-12 11 -32 6 -76 -7 -59 -7 -60 24 -76 l31 -16 0 31 c0 32 9 37 28 18 9 -9 12
-7 12 9 0 13 -10 25 -30 33 -21 9 -30 19 -30 35 0 13 -7 25 -15 29 -8 3 -15
13 -15 23 0 10 -13 25 -29 34 l-29 17 -7 -81z m92 -89 c-3 -8 -6 -5 -6 6 -1
11 2 17 5 13 3 -3 4 -12 1 -19z"/>
<path d="M1711 914 c0 -11 3 -14 6 -6 3 7 2 16 -1 19 -3 4 -6 -2 -5 -13z"/>
<path d="M1927 803 c-3 -5 -8 -24 -12 -43 -7 -32 -6 -33 9 -21 22 19 43 57 25
46 -9 -6 -11 -3 -6 8 6 17 -7 24 -16 10z"/>
<path d="M840 776 c0 -8 9 -18 21 -21 13 -5 18 -12 14 -23 -3 -8 0 -19 7 -24
19 -11 30 -10 22 4 -5 8 0 9 14 6 37 -10 26 20 -18 47 -45 29 -60 31 -60 11z"/>
<path d="M1812 778 c-15 -15 -16 -32 -2 -23 16 10 12 -21 -5 -35 -8 -7 -15
-20 -15 -29 0 -11 11 -4 36 21 38 37 42 74 8 61 -12 -4 -15 -3 -10 5 9 15 3
15 -12 0z"/>
<path d="M2025 728 c-16 -19 -23 -34 -16 -36 6 -2 9 -8 5 -13 -3 -5 -2 -9 3
-9 4 0 18 20 30 45 26 53 16 58 -22 13z"/>
<path d="M1809 671 l-76 -66 -17 -90 c-9 -49 -20 -101 -23 -115 -5 -20 8 -12
74 47 l79 72 23 106 c13 59 21 108 19 110 -1 1 -37 -27 -79 -64z m51 -8 c-5
-16 -14 -53 -21 -83 -10 -47 -19 -62 -66 -105 -55 -50 -55 -50 -50 -20 27 142
26 138 85 187 31 26 58 48 59 48 1 0 -2 -12 -7 -27z"/>
<path d="M1798 604 c-21 -19 -38 -43 -38 -52 0 -9 -3 -28 -7 -42 l-6 -24 33
26 c26 20 37 39 46 77 6 28 11 51 10 51 -1 0 -18 -16 -38 -36z"/>
<path d="M1918 713 c-16 -18 -52 -162 -43 -171 7 -7 22 39 30 91 4 26 13 52
21 58 17 14 17 16 -1 -51 -8 -30 -15 -57 -15 -59 0 -3 11 6 25 19 14 13 25 33
25 46 0 12 7 27 15 34 8 7 15 19 15 28 0 13 -3 13 -19 -2 -18 -16 -19 -16 -17
0 2 24 -18 28 -36 7z"/>
<path d="M1470 671 c0 -11 9 -25 20 -31 17 -9 20 -8 20 9 0 11 -9 25 -20 31
-17 9 -20 8 -20 -9z"/>
<path d="M1651 584 c0 -11 3 -14 6 -6 3 7 2 16 -1 19 -3 4 -6 -2 -5 -13z"/>
<path d="M1390 425 c0 -8 9 -19 20 -25 17 -9 20 -8 20 9 0 10 -7 22 -16 25
-22 8 -24 8 -24 -9z"/>
<path d="M1621 414 c0 -11 3 -14 6 -6 3 7 2 16 -1 19 -3 4 -6 -2 -5 -13z"/>
</g>
</svg>
